<?xml version="1.0" encoding="UTF-8"?>
<svg version="1.1" xmlns="http://www.w3.org/2000/svg" width="873" height="422">
<path d="M0 0 C288.09 0 576.18 0 873 0 C873 139.26 873 278.52 873 422 C584.91 422 296.82 422 0 422 C0 282.74 0 143.48 0 0 Z " fill="#FEFEFE" transform="translate(0,0)"/>
<path d="M0 0 C1.8884776 -0.00378869 3.77695241 -0.00929324 5.66542053 -0.01637268 C10.76656989 -0.03027091 15.86737983 -0.01919803 20.96851015 -0.00266147 C26.32010408 0.01124415 31.67167941 0.00472285 37.02328491 0.00120544 C46.0059757 -0.00149186 54.9885325 0.01193924 63.97119141 0.03515625 C74.34310075 0.06177911 84.71478638 0.06350611 95.0867182 0.05176789 C105.08469024 0.04097483 115.08258168 0.04718814 125.08054733 0.06132317 C129.32674448 0.06706807 133.57288237 0.06701211 137.81908035 0.06225777 C142.82115882 0.05747214 147.82299344 0.06765525 152.82502556 0.08921242 C154.65633637 0.09475828 156.48767071 0.09526589 158.31898308 0.09025955 C171.09606471 0.05972015 181.22854673 0.60024113 191.17724609 9.50170898 C197.24704291 15.70945573 201.28938464 23.87582511 201.31146717 32.65890408 C201.31592501 33.48441594 201.32038286 34.3099278 201.32497579 35.16045517 C201.32479143 36.06209099 201.32460706 36.96372681 201.32441711 37.89268494 C201.3280938 38.85473219 201.33177049 39.81677944 201.33555859 40.80797964 C201.34659541 44.04044883 201.35043933 47.27288588 201.35424805 50.50537109 C201.36051284 52.81981509 201.36715965 55.13425807 201.37416077 57.44869995 C201.39520657 65.05881042 201.40556554 72.66892109 201.41552734 80.27905273 C201.41957509 82.90008619 201.42369202 85.52111954 201.42787743 88.14215279 C201.4447487 99.04795411 201.45938188 109.95375253 201.46662617 120.85956478 C201.46853592 123.6886031 201.47045627 126.5176414 201.47241211 129.34667969 C201.47289585 130.04978335 201.47337959 130.75288701 201.47387799 131.47729684 C201.48216817 142.85263052 201.50748758 154.2278587 201.53999279 165.60314637 C201.57313027 177.29557618 201.59108109 188.98795252 201.59427041 200.68042952 C201.59661796 207.23970529 201.60554001 213.79881439 201.63073158 220.35804558 C201.65406924 226.53455823 201.65822245 232.71079517 201.6479702 238.88734055 C201.64747607 241.14753577 201.65375992 243.40774482 201.66752625 245.66789818 C201.83553852 274.90115125 201.83553852 274.90115125 192.92724609 284.00170898 C185.92665136 291.08277033 178.60759878 295.65976809 168.39796805 295.80003101 C167.67131328 295.80014263 166.9446585 295.80025426 166.19598389 295.80036926 C165.40978739 295.80827836 164.62359089 295.81618746 163.81357026 295.82433623 C161.18835895 295.84829803 158.5632874 295.85824729 155.93798828 295.86816406 C154.0518686 295.88237912 152.16575495 295.89741455 150.27964783 295.91320801 C145.16175659 295.95332343 140.04387089 295.98082057 134.92588329 296.00522065 C130.64924904 296.02661821 126.37265943 296.05383014 122.09605813 296.08092993 C112.0025521 296.14466034 101.90902729 296.19782874 91.81542969 296.24462891 C81.41460835 296.29305289 71.0140201 296.35991495 60.61336589 296.4357937 C51.6747822 296.5003116 42.73618093 296.55297438 33.79746938 296.59628218 C28.46289411 296.62226851 23.12844309 296.65277453 17.7939682 296.69483376 C12.77399036 296.73392533 7.75415218 296.75816956 2.73404121 296.77121735 C0.89666743 296.77844175 -0.94069481 296.79081924 -2.77799416 296.8088665 C-15.16863614 296.92646546 -25.89836082 296.83079222 -35.78369141 288.51733398 C-43.41752522 280.97124539 -47.12513107 271.79944212 -47.22398412 261.13122374 C-47.21729196 260.23432387 -47.21059979 259.33742399 -47.20370483 258.41334534 C-47.20838481 257.43674216 -47.21306478 256.46013898 -47.21788657 255.45394176 C-47.22979188 252.20222667 -47.22039664 248.9509365 -47.2109375 245.69921875 C-47.2150052 243.35946406 -47.22034819 241.0197113 -47.22686768 238.67996216 C-47.24052411 232.33906874 -47.23524923 225.99832205 -47.22573042 219.65742612 C-47.21889588 213.68823744 -47.22411827 207.71906207 -47.228512 201.74987375 C-47.23705571 189.20578873 -47.22724816 176.6617696 -47.2111109 164.11769538 C-47.19771176 153.36960898 -47.20003444 142.62161981 -47.21386719 131.87353516 C-47.22994646 119.37415291 -47.23622855 106.87482835 -47.2270304 94.3754372 C-47.22229777 87.76552169 -47.22171224 81.15566028 -47.23163986 74.54574776 C-47.2403239 68.32979436 -47.23426111 62.11402405 -47.21695709 55.89809036 C-47.21299979 53.62051764 -47.21411329 51.34292944 -47.22074509 49.06536293 C-47.22898054 45.94905466 -47.21861448 42.83332782 -47.20370483 39.71705627 C-47.210397 38.82238712 -47.21708916 37.92771797 -47.22398412 37.00593764 C-47.12390614 26.17216659 -43.86095483 16.44721822 -36.04150391 8.74780273 C-25.21616916 -0.10323941 -13.26260772 -0.07610021 0 0 Z " fill="#2DD2D7" transform="translate(66.82275390625,47.498291015625)"/>
<path d="M0 0 C2.01208035 -0.00134979 4.02416038 -0.00329293 6.03623962 -0.00579834 C10.22593329 -0.00872872 14.41554101 -0.00451551 18.60522461 0.00488281 C23.97525043 0.0163428 29.34507772 0.00966356 34.71509647 -0.00226212 C38.85773727 -0.00948068 43.00033074 -0.00719394 47.14297295 -0.00200653 C49.12412985 -0.00067346 51.10529107 -0.00230575 53.08644295 -0.00696564 C55.84558707 -0.01203803 58.60440557 -0.00431357 61.36352539 0.00683594 C62.17963791 0.00278748 62.99575043 -0.00126099 63.83659363 -0.00543213 C70.82207634 0.0469279 70.82207634 0.0469279 73.96484375 2.265625 C76.57624305 5.75836509 76.27101602 9.73379486 76.265625 13.91796875 C76.26991013 14.65511612 76.27419525 15.39226349 76.27861023 16.15174866 C76.28434121 17.70751928 76.28486287 19.26331669 76.28051758 20.8190918 C76.27735894 23.19171133 76.30082555 25.56308149 76.32617188 27.93554688 C76.32844524 29.45051927 76.32914819 30.965495 76.328125 32.48046875 C76.33733475 33.1858226 76.34654449 33.89117645 76.35603333 34.61790466 C76.31520551 38.99262001 75.86302379 41.91974929 72.96484375 45.265625 C68.63662446 47.06367218 65.00490396 47.50036037 60.34301758 47.44506836 C59.04338577 47.43523422 57.74375397 47.42540009 56.40473938 47.41526794 C55.71607599 47.405408 55.02741261 47.39554806 54.31788063 47.38538933 C52.13202665 47.35491317 49.9464457 47.33832272 47.76042175 47.32533264 C41.54718362 47.28588329 35.33427153 47.22155964 29.12133789 47.14916992 C8.33316589 46.70743345 8.33316589 46.70743345 -12.3359375 48.51953125 C-13.05839157 48.62861313 -13.78084564 48.73769501 -14.52519226 48.8500824 C-20.19286923 49.90545791 -24.48695435 52.14974907 -27.91015625 56.828125 C-29.88947976 62.87605796 -29.89261177 68.73838769 -27.84765625 74.765625 C-24.66568123 79.15455606 -21.23391213 80.41778126 -16.03515625 81.265625 C-14.31346707 81.35128556 -12.58905297 81.39069392 -10.86523438 81.39160156 C-9.86069214 81.39540833 -8.8561499 81.39921509 -7.82116699 81.40313721 C-6.74709595 81.40416443 -5.6730249 81.40519165 -4.56640625 81.40625 C-2.28123996 81.42456871 0.00391659 81.44413814 2.2890625 81.46484375 C5.88379506 81.49386924 9.47789629 81.51562677 13.07275391 81.51611328 C16.54776742 81.51944229 20.02133149 81.55394825 23.49609375 81.59375 C24.57016479 81.5866803 25.64423584 81.5796106 26.75085449 81.57232666 C31.38090414 81.64798713 34.16677197 81.76366453 38.14233398 84.26416016 C40.58812104 88.29209131 40.6708958 91.32931837 40.59375 95.9609375 C40.59616196 96.79019745 40.59857391 97.6194574 40.60105896 98.47384644 C40.6000824 100.22040609 40.58673429 101.96699743 40.56176758 103.71337891 C40.52735936 106.38941065 40.54114043 109.0621566 40.56054688 111.73828125 C40.55365082 113.43751407 40.5439806 115.13673838 40.53125 116.8359375 C40.53620987 117.63597198 40.54116974 118.43600647 40.54627991 119.26028442 C40.42842437 124.80035643 40.42842437 124.80035643 38.2550354 126.98165894 C35.52221515 128.51377895 33.9071227 128.61270423 30.78833008 128.55859375 C29.75658157 128.54868408 28.72483307 128.53877441 27.66181946 128.52856445 C26.55138779 128.50366943 25.44095612 128.47877441 24.296875 128.453125 C23.14748947 128.44176514 21.99810394 128.43040527 20.81388855 128.41870117 C15.89823146 128.3697102 10.9833235 128.28562809 6.06811523 128.20410156 C2.47773749 128.14961137 -1.11251566 128.11346543 -4.703125 128.078125 C-5.80343552 128.05322998 -6.90374603 128.02833496 -8.03739929 128.00268555 C-15.83037113 127.92896232 -22.24726878 128.87760898 -28.91015625 133.078125 C-33.79077868 138.10229514 -35.01554755 143.75196324 -35.28515625 150.515625 C-35.1841545 157.2602974 -33.36417792 163.88185178 -28.66015625 168.921875 C-15.22854822 180.02878164 4.13988239 178.01225257 20.35131836 176.49291992 C34.0153876 175.06174827 46.47888206 171.95820553 59.40039062 167.40795898 C60.19638672 167.13282471 60.99238281 166.85769043 61.8125 166.57421875 C62.52801025 166.32212646 63.24352051 166.07003418 63.98071289 165.81030273 C66.9708386 164.98946227 69.067129 165.23072687 71.96484375 166.265625 C74.5611716 169.08271248 75.34475887 170.98331677 75.40063477 174.78710938 C75.41977432 175.67483032 75.43891388 176.56255127 75.45863342 177.47717285 C75.46197189 178.42829956 75.46531036 179.37942627 75.46875 180.359375 C75.4787352 181.34305054 75.4887204 182.32672607 75.49900818 183.34020996 C75.51418188 185.41800737 75.5212342 187.49587771 75.52075195 189.57373047 C75.5273214 192.75480029 75.58183296 195.93276261 75.63867188 199.11328125 C75.64747269 201.13280182 75.65342774 203.15233722 75.65625 205.171875 C75.67780655 206.12300171 75.6993631 207.07412842 75.72157288 208.05407715 C75.69513842 210.59651529 75.60978197 212.8059057 74.96484375 215.265625 C71.04185109 218.80184851 66.59646794 220.34341905 61.58984375 221.828125 C60.89286377 222.03864502 60.19588379 222.24916504 59.4777832 222.46606445 C52.07175516 224.63187627 44.59595695 226.14324577 36.96484375 227.265625 C36.26085449 227.37003906 35.55686523 227.47445312 34.83154297 227.58203125 C-0.0366503 232.51083871 -38.44213483 231.02251147 -68.09765625 210.203125 C-69.76278559 208.91519337 -71.41104 207.60490467 -73.03515625 206.265625 C-73.98068359 205.49025391 -73.98068359 205.49025391 -74.9453125 204.69921875 C-86.04734926 194.60875709 -94.302852 178.12599192 -95.15820312 163.10473633 C-95.81275987 142.67578085 -92.31600669 126.50748881 -79.02734375 110.3515625 C-76.85475812 108.07673754 -74.53159413 106.17466574 -72.03515625 104.265625 C-72.65252834 100.69948886 -74.11539027 98.56627272 -76.28515625 95.703125 C-83.37468684 85.81854334 -87.44633987 75.21151077 -87.34765625 63.015625 C-87.3420166 62.27546143 -87.33637695 61.53529785 -87.33056641 60.77270508 C-86.99420629 45.40504411 -80.77573126 31.28541773 -70.03515625 20.265625 C-49.69318323 2.71322917 -25.70813089 -0.0611152 0 0 Z " fill="#25414A" transform="translate(156.03515625,88.734375)"/>
<path d="M0 0 C1.12411285 -0.00554901 2.24822571 -0.01109802 3.40640259 -0.01681519 C7.12162927 -0.02862443 10.83563988 -0.00432118 14.55078125 0.02148438 C17.13240503 0.02319517 19.71403055 0.02313011 22.2956543 0.0213623 C27.70607404 0.02301629 33.11605111 0.04114724 38.52636719 0.07324219 C44.77547071 0.1101335 51.02411627 0.11891738 57.27331448 0.11194468 C63.29243981 0.10563255 69.31136822 0.11662059 75.33047485 0.13591003 C77.88855219 0.14294458 80.44664336 0.14606402 83.00473022 0.1452179 C86.57892902 0.14701427 90.15247626 0.16838382 93.7265625 0.1953125 C95.3148436 0.1909166 95.3148436 0.1909166 96.93521118 0.18643188 C105.94785863 0.2912723 105.94785863 0.2912723 109.86328125 3.61523438 C111.63330078 6.04101562 111.63330078 6.04101562 113.24609375 8.92773438 C113.85122803 9.99314453 114.4563623 11.05855469 115.07983398 12.15625 C116.02451538 13.86844727 116.02451538 13.86844727 116.98828125 15.61523438 C118.31175155 18.00252622 119.63928613 20.38752578 120.96875 22.77148438 C121.46197502 23.66051453 121.46197502 23.66051453 121.96516418 24.56750488 C123.91793798 28.05224479 125.99835175 31.3753899 128.2890625 34.64648438 C136.42998905 46.51685955 137.91339296 57.74613902 136.43139648 72.07446289 C135.58341666 75.86686774 134.09639815 77.53388703 130.86328125 79.61523438 C128.109375 80.25976562 128.109375 80.25976562 125.30078125 80.42773438 C121.34791605 80.84021508 121.34791605 80.84021508 118.54296875 83.33398438 C117.96209091 84.73646421 117.41006357 86.15122312 116.88671875 87.57617188 C114.62701011 92.07833947 109.43821647 94.09025597 104.86328125 95.61523438 C98.86308956 96.20348846 94.76162735 94.95268193 89.86328125 91.61523438 C86.13754114 88.2574686 84.8735748 85.66670211 83.86328125 80.61523438 C59.60828125 80.12023437 59.60828125 80.12023437 34.86328125 79.61523438 C34.20328125 81.92523438 33.54328125 84.23523438 32.86328125 86.61523438 C29.53214594 90.84783672 25.12482652 93.51907911 19.86328125 94.61523438 C13.90590691 95.27716486 9.72658768 93.94919916 4.86328125 90.61523438 C2.02881962 87.9347435 0.1118207 85.36085272 -1.13671875 81.61523438 C-1.884375 81.51726562 -2.63203125 81.41929687 -3.40234375 81.31835938 C-4.3871875 81.16882813 -5.37203125 81.01929688 -6.38671875 80.86523438 C-7.36125 80.72601563 -8.33578125 80.58679688 -9.33984375 80.44335938 C-12.75626978 79.43179189 -13.94483299 78.41418472 -16.13671875 75.61523438 C-16.65138245 72.51039124 -16.65138245 72.51039124 -16.67016602 68.81469727 C-16.67878159 68.13939468 -16.68739716 67.4640921 -16.6962738 66.76832581 C-16.71893394 64.54112158 -16.71219549 62.31517573 -16.703125 60.08789062 C-16.70836098 58.53616462 -16.71463736 56.9844418 -16.72190857 55.432724 C-16.73231303 52.1819663 -16.72775159 48.93164631 -16.71313477 45.6809082 C-16.69595414 41.519841 -16.71943116 37.36015558 -16.75462437 33.19924259 C-16.77661191 29.99493806 -16.77515365 26.79096341 -16.76685905 23.58660698 C-16.76604011 22.05283531 -16.77289277 20.51903929 -16.78763008 18.98533821 C-16.80510148 16.83775716 -16.79051746 14.6926487 -16.76782227 12.54516602 C-16.7668605 11.32479141 -16.76589874 10.10441681 -16.76490784 8.84706116 C-16.13671875 5.61523438 -16.13671875 5.61523438 -14.2933197 2.7205658 C-9.61392499 -0.40041049 -5.51039112 -0.06902336 0 0 Z " fill="#254049" transform="translate(661.13671875,124.384765625)"/>
<path d="M0 0 C12.02030036 9.71960486 19.03842546 22.57248136 21 38 C22.27653027 55.85344451 18.83210763 72.9274681 7.1875 87 C-2.04586563 96.6084153 -14.19736755 100.97171025 -27.31860352 101.29248047 C-40.16495415 101.40398685 -49.58060473 98.74265041 -60 91 C-61.485 90.01 -61.485 90.01 -63 89 C-62.99111755 89.59246521 -62.98223511 90.18493042 -62.9730835 90.79534912 C-62.88461704 96.95949662 -62.82426874 103.12346393 -62.78027344 109.28808594 C-62.76015312 111.58894169 -62.73285366 113.88974629 -62.69824219 116.19042969 C-62.64974388 119.49687317 -62.62703522 122.80264085 -62.609375 126.109375 C-62.58872986 127.13867126 -62.56808472 128.16796753 -62.54681396 129.22845459 C-62.54459286 136.2911103 -62.54459286 136.2911103 -64.70361328 139.65185547 C-67.41194769 141.24184299 -69.00302049 141.48990128 -72.1328125 141.4609375 C-73.10347656 141.45707031 -74.07414063 141.45320312 -75.07421875 141.44921875 C-76.08097656 141.42472656 -77.08773437 141.40023437 -78.125 141.375 C-79.13949219 141.37371094 -80.15398438 141.37242187 -81.19921875 141.37109375 C-88.71902375 141.28097625 -88.71902375 141.28097625 -91 139 C-91.24888897 136.52341366 -91.24888897 136.52341366 -91.24723816 133.33738708 C-91.25352989 131.53059479 -91.25352989 131.53059479 -91.25994873 129.68730164 C-91.25446489 128.3454887 -91.2487819 127.00367657 -91.24291992 125.66186523 C-91.24399239 124.25434277 -91.24593054 122.84682074 -91.24867249 121.43930054 C-91.25352922 117.61091812 -91.24585522 113.78265185 -91.23571944 109.95428348 C-91.22695385 105.95488025 -91.22869609 101.95548082 -91.2290802 97.95606995 C-91.22814297 91.23998056 -91.21945058 84.52393629 -91.20581055 77.80786133 C-91.19007802 70.03253431 -91.18481263 62.25725672 -91.1855461 54.48191494 C-91.18615552 47.01427868 -91.18105841 39.54665859 -91.17275429 32.07902718 C-91.16921512 28.89522234 -91.16739014 25.71142321 -91.16686058 22.5276165 C-91.16585926 18.78236824 -91.15978 15.03716181 -91.14969444 11.29192734 C-91.14676288 9.91361179 -91.14554539 8.53529143 -91.14612198 7.15697289 C-91.14660939 5.28318718 -91.14036298 3.40940324 -91.13371277 1.53562927 C-91.13203692 0.48461753 -91.13036108 -0.56639421 -91.12863445 -1.6492548 C-91 -4 -91 -4 -90 -5 C-88.23140807 -5.09946453 -86.45888549 -5.13080217 -84.6875 -5.1328125 C-83.61242187 -5.13410156 -82.53734375 -5.13539063 -81.4296875 -5.13671875 C-80.29789063 -5.13285156 -79.16609375 -5.12898437 -78 -5.125 C-76.86820313 -5.12886719 -75.73640625 -5.13273438 -74.5703125 -5.13671875 C-73.49523437 -5.13542969 -72.42015625 -5.13414062 -71.3125 -5.1328125 C-69.82169922 -5.13112061 -69.82169922 -5.13112061 -68.30078125 -5.12939453 C-66 -5 -66 -5 -65 -4 C-64.92773498 -2.14712498 -64.9161878 -0.29166122 -64.9375 1.5625 C-64.94652344 2.57441406 -64.95554687 3.58632812 -64.96484375 4.62890625 C-64.97644531 5.41136719 -64.98804688 6.19382813 -65 7 C-64.34515625 6.40832031 -63.6903125 5.81664062 -63.015625 5.20703125 C-45.54657009 -9.91801205 -19.90604355 -13.55372002 0 0 Z " fill="#254049" transform="translate(709,244)"/>
<path d="M0 0 C10.75242508 8.86028936 17.44280441 22.43738581 19.37109375 36.15234375 C19.86295381 42.22886491 19.11024898 46.06530044 17.37109375 52.15234375 C-7.37890625 52.48234375 -32.12890625 52.81234375 -57.62890625 53.15234375 C-56.65561848 60.93864594 -55.8111797 65.88167381 -50.37890625 71.46484375 C-41.96938817 76.62522984 -33.48352482 77.66607202 -23.81640625 75.53125 C-19.05015188 73.89648288 -16.45881682 72.19159654 -13.6171875 68.02734375 C-11.38354887 65.38069269 -10.22499189 64.29033229 -6.81933594 63.50195312 C-3.57660525 63.36612133 -0.43051393 63.45242256 2.80859375 63.65234375 C3.92169922 63.6884375 5.03480469 63.72453125 6.18164062 63.76171875 C8.91505472 63.85556988 11.64124788 63.98668616 14.37109375 64.15234375 C15.54171948 67.66422094 14.92031735 68.75553418 13.37866211 71.98803711 C7.0578989 84.37320604 -0.57758642 90.99867424 -13.62890625 96.15234375 C-28.87149952 100.79518176 -47.18142367 99.93291651 -61.3828125 92.76171875 C-63.89927107 91.33660063 -66.26348708 89.81441704 -68.62890625 88.15234375 C-69.26441406 87.71277344 -69.89992188 87.27320313 -70.5546875 86.8203125 C-78.70038382 80.55300291 -83.49126416 70.73870752 -86.62890625 61.15234375 C-86.85449219 60.47171875 -87.08007812 59.79109375 -87.3125 59.08984375 C-91.39047408 44.24039331 -88.72873191 27.08623898 -81.44140625 13.71484375 C-73.04002855 0.5407685 -61.57922404 -6.86498963 -46.62890625 -10.84765625 C-29.90447248 -14.01627545 -13.80318427 -9.70119786 0 0 Z " fill="#264049" transform="translate(829.62890625,246.84765625)"/>
<path d="M0 0 C7.55647813 5.95292318 11.14283185 12.87681226 13 22.25 C13.42960636 28.02313294 13.42335234 33.77607212 13.3984375 39.5625 C13.40046157 41.22493619 13.40337578 42.88737151 13.40713501 44.54980469 C13.41153287 48.01261961 13.40520321 51.47520073 13.39111328 54.93798828 C13.37391517 59.38134568 13.383945 63.82416361 13.40183067 68.26750183 C13.41264626 71.69036974 13.40923434 75.11310853 13.4014473 78.53598022 C13.39944464 80.1754869 13.40190686 81.81500525 13.40888596 83.45449829 C13.41647573 85.73560995 13.40493722 88.01583009 13.38818359 90.296875 C13.38579681 91.59463867 13.38341003 92.89240234 13.38095093 94.22949219 C13.25523712 95.22625977 13.12952332 96.22302734 13 97.25 C9.82329004 99.36780664 9.03752682 99.49892146 5.40234375 99.48046875 C4.51869141 99.47853516 3.63503906 99.47660156 2.72460938 99.47460938 C1.80486328 99.46236328 0.88511719 99.45011719 -0.0625 99.4375 C-0.98611328 99.43685547 -1.90972656 99.43621094 -2.86132812 99.43554688 C-9.71907383 99.39046308 -9.71907383 99.39046308 -12 98.25 C-12.4140625 96.18359375 -12.4140625 96.18359375 -12.625 93.6875 C-12.73714844 92.44806641 -12.73714844 92.44806641 -12.8515625 91.18359375 C-12.90054688 90.54550781 -12.94953125 89.90742188 -13 89.25 C-15.91215162 90.61203082 -18.35904234 92.21466477 -20.9375 94.125 C-31.36135763 101.08561197 -42.91505456 102.62067132 -55.1328125 100.77734375 C-64.82193412 98.70818351 -73.2248876 94.72375296 -78.81640625 86.296875 C-83.28544348 78.56824296 -84.17818036 71.17326765 -83 62.25 C-80.56616824 54.82767619 -76.85828311 48.25906991 -70 44.25 C-61.12145121 39.92879141 -53.76023893 38.09132845 -43.98046875 38.15234375 C-42.69261223 38.15446617 -42.69261223 38.15446617 -41.3787384 38.15663147 C-38.64828951 38.16220943 -35.91792393 38.17475786 -33.1875 38.1875 C-31.3313814 38.19251785 -29.4752615 38.19708026 -27.61914062 38.20117188 C-23.0793952 38.21217164 -18.5397117 38.22942107 -14 38.25 C-14.13466981 36.32249135 -14.27670916 34.3954966 -14.421875 32.46875 C-14.50018555 31.39560547 -14.57849609 30.32246094 -14.65917969 29.21679688 C-15.23741352 24.1833459 -16.81959805 21.3418718 -20.5 17.9375 C-26.11656321 14.14631983 -32.46624924 14.72358406 -39 15.25 C-42.23304943 16.02176019 -44.45524985 17.11936788 -47 19.25 C-47.86382578 20.77002227 -48.69113492 22.31116038 -49.48828125 23.8671875 C-51.36290567 26.7673125 -52.25611082 28.03159453 -55.60522461 29.01489258 C-58.69749514 29.20865673 -61.65839521 29.1352859 -64.75 28.9375 C-65.80316406 28.91365234 -66.85632813 28.88980469 -67.94140625 28.86523438 C-75.64689057 28.60310943 -75.64689057 28.60310943 -78 26.25 C-78 18.01376689 -74.37444352 11.04946885 -68.953125 4.9453125 C-51.25118976 -11.6894848 -20.005373 -13.40729483 0 0 Z " fill="#254049" transform="translate(584,244.75)"/>
<path d="M0 0 C7.39863932 5.92652583 13.2827911 14.79863547 15.37109375 24.0703125 C15.52734375 27.32421875 15.52734375 27.32421875 13.52734375 30.32421875 C9.39080203 31.70306599 5.48650464 31.62763351 1.15234375 31.69921875 C0.3015625 31.73660156 -0.54921875 31.77398437 -1.42578125 31.8125 C-5.895621 31.8751613 -7.82665894 31.83033476 -11.44921875 28.9921875 C-12.85959421 27.13256117 -14.19647285 25.21587457 -15.47265625 23.26171875 C-18.93490008 18.17654812 -22.44734231 15.87196659 -28.37109375 14.640625 C-36.03940448 13.48610238 -42.7430807 14.45235223 -49.421875 18.5078125 C-55.32010566 23.02424509 -59.13299422 30.03050323 -60.47265625 37.32421875 C-61.3311883 48.37254105 -60.31789387 57.88084311 -53.28515625 66.76171875 C-47.61102609 72.60379357 -41.9899828 74.52819775 -33.91015625 74.76171875 C-26.88744502 74.50768836 -21.86877151 73.72033401 -16.72265625 68.57421875 C-15.10258584 66.23411705 -13.66963092 63.98145928 -12.28515625 61.51171875 C-10.47265625 58.32421875 -10.47265625 58.32421875 -8.47265625 57.32421875 C-4.99883967 57.08474234 -1.51631811 57.13902874 1.96484375 57.13671875 C2.93228516 57.12447266 3.89972656 57.11222656 4.89648438 57.09960938 C5.82525391 57.09767578 6.75402344 57.09574219 7.7109375 57.09375 C8.98795532 57.08758667 8.98795532 57.08758667 10.29077148 57.08129883 C12.52734375 57.32421875 12.52734375 57.32421875 15.52734375 59.32421875 C16.20198007 64.81575843 14.83634846 68.69678144 12.27734375 73.44921875 C11.97699219 74.04347656 11.67664063 74.63773437 11.3671875 75.25 C5.09587294 87.33895955 -6.10141933 94.02193436 -18.828125 98.07421875 C-34.14704836 101.76923544 -51.10581852 99.65999533 -64.91015625 92.13671875 C-76.93502698 84.44601552 -85.38453831 73.46426048 -88.984375 59.55078125 C-92.48829592 43.57290184 -90.35814013 27.24031281 -81.47265625 13.32421875 C-78.69035424 9.74624932 -75.70134741 6.50175108 -72.47265625 3.32421875 C-71.88484375 2.73769531 -71.29703125 2.15117187 -70.69140625 1.546875 C-51.39087044 -16.34253673 -20.5793845 -13.9471658 0 0 Z " fill="#253F48" transform="translate(474.47265625,246.67578125)"/>
<path d="M0 0 C6.23900639 4.90588537 11.7466433 11.1652696 14.28515625 18.796875 C14.66015625 22.171875 14.66015625 22.171875 14.28515625 24.796875 C10.85567604 28.22635521 6.0607499 27.2077833 1.41015625 27.234375 C0.40339844 27.26724609 -0.60335937 27.30011719 -1.640625 27.33398438 C-9.06680121 27.38822603 -9.06680121 27.38822603 -12.3046875 24.43359375 C-12.77003906 23.56347656 -13.23539062 22.69335938 -13.71484375 21.796875 C-16.62131268 17.27570111 -19.30277929 15.69120726 -24.34375 14.234375 C-30.30013815 13.13533798 -35.62151235 14.52259053 -40.71484375 17.796875 C-43.1018366 20.94336557 -43.18735741 23.93801346 -42.71484375 27.796875 C-40.03999403 32.39761651 -36.62485659 34.18300047 -31.71484375 35.796875 C-28.17472912 36.57099803 -24.60712958 37.11509417 -21.02734375 37.671875 C-7.56339679 39.98425798 2.96232962 43.22278052 12.28515625 53.796875 C17.40702111 61.51363691 18.42818767 69.90100412 16.9296875 78.94140625 C14.66992813 86.38799584 8.82784389 92.46924138 2.44921875 96.66015625 C-13.68344901 105.19226269 -30.40030793 105.52063554 -47.71484375 100.796875 C-57.09015448 97.0376374 -64.77505635 91.18905575 -68.99609375 81.85546875 C-70.19053728 78.43442668 -70.58967185 75.42686 -70.71484375 71.796875 C-67.29128879 68.37332004 -62.54674291 69.34429707 -57.90234375 69.296875 C-56.90396484 69.255625 -55.90558594 69.214375 -54.87695312 69.171875 C-47.69320462 69.0952994 -47.69320462 69.0952994 -44.90087891 71.09765625 C-43.06573405 73.22453545 -41.71484375 74.91424306 -41.71484375 77.796875 C-40.99296875 78.085625 -40.27109375 78.374375 -39.52734375 78.671875 C-37.80464577 79.36095419 -36.09261138 80.07856128 -34.40234375 80.84375 C-28.23628745 83.03054904 -21.03346075 82.80679953 -15.08984375 80.046875 C-12.12110554 78.46855848 -10.90087148 76.95170877 -9.71484375 73.796875 C-9.84559556 70.13582439 -10.16799109 67.65281829 -12.15234375 64.546875 C-18.49549383 60.21496763 -26.22021491 59.51188128 -33.65234375 58.359375 C-46.05299409 56.40667726 -57.98297741 53.06121654 -66.15234375 42.859375 C-70.01603051 37.22973723 -71.3829204 31.58898761 -70.71484375 24.796875 C-68.82590744 17.02647789 -66.15853081 10.68676592 -60.71484375 4.796875 C-60.17472656 4.18070313 -59.63460938 3.56453125 -59.078125 2.9296875 C-44.6221635 -11.68306317 -16.27947693 -10.69416046 0 0 Z " fill="#253F48" transform="translate(358.71484375,243.203125)"/>
<path d="M0 0 C6.5661922 4.52883163 11.03141086 10.20780504 13.609375 17.79296875 C15.50703178 28.51472956 14.7080945 39.10861815 8.4921875 48.20703125 C3.40336582 54.58581006 -2.90620298 58.69454887 -11 60 C-18.70625751 60.77062575 -25.50692669 58.44612977 -31.7890625 54.046875 C-39.59400895 47.46217092 -43.28781397 40.60054267 -44.23828125 30.45703125 C-44.48971039 21.49821386 -42.45968791 14.629726 -36.6875 7.6875 C-27.14884636 -2.40146058 -12.94184599 -7.5921894 0 0 Z " fill="#FDFDFE" transform="translate(688,263)"/>
<path d="M0 0 C0.86689453 0.00322266 1.73378906 0.00644531 2.62695312 0.00976562 C3.48224609 -0.00634766 4.33753906 -0.02246094 5.21875 -0.0390625 C10.06448934 -0.04281598 13.44984773 0.0912021 17.31445312 3.32226562 C20.91275514 7.2273996 23.46056055 11.72516537 26.06445312 16.32226562 C26.47566406 17.0209375 26.886875 17.71960938 27.31054688 18.43945312 C27.69855469 19.12265625 28.0865625 19.80585938 28.48632812 20.50976562 C29.01371582 21.42822266 29.01371582 21.42822266 29.55175781 22.36523438 C30.49028557 24.77344133 30.4438754 26.76036825 30.31445312 29.32226562 C24.92098324 29.34691412 19.52754587 29.36510093 14.1340332 29.37719727 C12.29776438 29.38223794 10.46149958 29.38907039 8.62524414 29.39770508 C5.99168911 29.40978235 3.35818696 29.41549644 0.72460938 29.41992188 C-0.51445412 29.4276638 -0.51445412 29.4276638 -1.77854919 29.43556213 C-3.74791055 29.43575767 -5.71716301 29.38430714 -7.68554688 29.32226562 C-10.33095285 26.67685965 -8.8711684 18.94822377 -8.87304688 15.38476562 C-8.89141602 13.55655273 -8.89141602 13.55655273 -8.91015625 11.69140625 C-8.91208984 10.52931641 -8.91402344 9.36722656 -8.91601562 8.16992188 C-8.92012451 7.09750244 -8.9242334 6.02508301 -8.9284668 4.92016602 C-8.40200682 -0.71004571 -4.56975534 0.03911853 0 0 Z " fill="#FBFCFC" transform="translate(746.685546875,137.677734375)"/>
<path d="M0 0 C4.49399903 3.90421357 7.81182789 8.05913947 9 14 C9 15.65 9 17.3 9 19 C-6.84 19 -22.68 19 -39 19 C-40.29223531 13.83105878 -39.00910952 12.01256298 -36.58203125 7.47265625 C-33.07568816 1.99237187 -28.34916603 -1.53588974 -22.16015625 -3.52734375 C-14.26405408 -5.25506231 -6.95350467 -4.16977332 0 0 Z " fill="#FCFDFD" transform="translate(811,261)"/>
<path d="M0 0 C1.01725914 0.00636726 1.01725914 0.00636726 2.05506897 0.01286316 C4.19469027 0.02948934 6.33332572 0.06710701 8.47265625 0.10546875 C9.93423107 0.12053653 11.39582083 0.13422125 12.85742188 0.14648438 C16.41698022 0.17933898 19.97597181 0.23100634 23.53515625 0.29296875 C22.88159703 8.23564817 21.74247775 14.666769 15.4140625 20.12109375 C7.46712464 25.64240639 0.19366926 27.36613686 -9.46484375 26.29296875 C-13.92345117 24.18099682 -16.58638908 21.88474683 -18.46484375 17.29296875 C-18.99258991 12.54325331 -18.94021256 10.30075063 -16.90234375 5.98046875 C-12.1148617 0.7019629 -6.88520809 -0.08570798 0 0 Z " fill="#FCFDFD" transform="translate(547.46484375,299.70703125)"/>
<path d="M0 0 C1.16273438 -0.01224609 2.32546875 -0.02449219 3.5234375 -0.03710938 C4.6371875 -0.03904297 5.7509375 -0.04097656 6.8984375 -0.04296875 C7.92372559 -0.04707764 8.94901367 -0.05118652 10.00537109 -0.05541992 C12.625 0.1875 12.625 0.1875 15.625 2.1875 C15.98144531 4.87719727 15.98144531 4.87719727 15.953125 8.25390625 C15.94796875 9.46111328 15.9428125 10.66832031 15.9375 11.91210938 C15.916875 13.17861328 15.89625 14.44511719 15.875 15.75 C15.86984375 17.02037109 15.8646875 18.29074219 15.859375 19.59960938 C15.77869778 29.03380222 15.77869778 29.03380222 14.625 30.1875 C12.63742972 30.28733058 10.6463248 30.31830753 8.65625 30.3203125 C7.44582031 30.32160156 6.23539063 30.32289063 4.98828125 30.32421875 C3.71339844 30.32035156 2.43851563 30.31648438 1.125 30.3125 C-0.14988281 30.31636719 -1.42476562 30.32023437 -2.73828125 30.32421875 C-4.55392578 30.32228516 -4.55392578 30.32228516 -6.40625 30.3203125 C-7.52580078 30.31918457 -8.64535156 30.31805664 -9.79882812 30.31689453 C-12.375 30.1875 -12.375 30.1875 -13.375 29.1875 C-13.47493532 27.1269469 -13.50580906 25.0629741 -13.5078125 23 C-13.50910156 21.74445313 -13.51039063 20.48890625 -13.51171875 19.1953125 C-13.50962402 18.53821289 -13.5075293 17.88111328 -13.50537109 17.20410156 C-13.50002234 15.19588665 -13.50531691 13.18789541 -13.51171875 11.1796875 C-13.51042969 9.92414063 -13.50914062 8.66859375 -13.5078125 7.375 C-13.50612061 5.63283203 -13.50612061 5.63283203 -13.50439453 3.85546875 C-13.20114933 -2.39710408 -4.84229791 0.00266646 0 0 Z " fill="#FDFEFE" transform="translate(671.375,137.8125)"/>
<path d="M0 0 C1.12591553 0.00523682 2.25183105 0.01047363 3.41186523 0.01586914 C4.50571533 0.0183667 5.59956543 0.02086426 6.7265625 0.0234375 C8.82729126 0.03709351 8.82729126 0.03709351 10.97045898 0.05102539 C17.62202148 0.08196289 17.62202148 0.08196289 24.40795898 0.11352539 C24.40795898 9.68352539 24.40795898 19.25352539 24.40795898 29.11352539 C19.97358398 29.13415039 15.53920898 29.15477539 10.97045898 29.17602539 C9.56997314 29.18512939 8.1694873 29.1942334 6.7265625 29.20361328 C5.6327124 29.20611084 4.5388623 29.2086084 3.41186523 29.21118164 C2.28594971 29.21641846 1.16003418 29.22165527 0 29.22705078 C-2.59204102 29.11352539 -2.59204102 29.11352539 -3.59204102 28.11352539 C-3.69187159 26.12595511 -3.72284855 24.1348502 -3.72485352 22.14477539 C-3.72614258 20.9343457 -3.72743164 19.72391602 -3.72875977 18.47680664 C-3.72489258 17.20192383 -3.72102539 15.92704102 -3.71704102 14.61352539 C-3.7209082 13.33864258 -3.72477539 12.06375977 -3.72875977 10.75024414 C-3.7274707 9.53981445 -3.72618164 8.32938477 -3.72485352 7.08227539 C-3.72372559 5.96272461 -3.72259766 4.84317383 -3.72143555 3.68969727 C-3.5467883 0.21256949 -3.48066421 0.15244503 0 0 Z " fill="#FEFEFE" transform="translate(701.592041015625,137.886474609375)"/>
<path d="M0 0 C2.77428577 1.26103899 4.48317435 2.31089914 6.3125 4.75 C7.32815881 8.0739743 7.41796486 10.53686262 7 14 C4.5550706 18.00079356 3.04081778 19.65936873 -1.4375 21.125 C-5.85448522 20.97001806 -7.67655139 19.85971159 -11 17 C-13.25497853 14.25480874 -13 12.70529313 -13 9.0625 C-12.49601436 5.89035508 -11.68018708 4.18125503 -9.3125 2 C-5.67468903 -0.19641417 -4.15025856 -0.70642699 0 0 Z " fill="#FAFBFB" transform="translate(681,190)"/>
<path d="M0 0 C2.9375 1.4375 2.9375 1.4375 5 4 C6.26881355 7.73555721 6.78837377 11.1904945 5.1796875 14.8828125 C2.97987578 17.89844844 1.03452659 18.98951871 -2.5 20.0625 C-7.31569366 19.97650547 -9.34200825 18.43692618 -12.875 15.375 C-14.69096593 11.54129415 -14.18366286 8.00680907 -13 4 C-9.43487484 -0.42939793 -5.36775347 -1.03017491 0 0 Z " fill="#FBFCFC" transform="translate(767,191)"/>
<path d="M0 0 C0.33 0 0.66 0 1 0 C1.33 46.2 1.66 92.4 2 140 C8.93 140 15.86 140 23 140 C23.33 123.83 23.66 107.66 24 91 C24.33 91 24.66 91 25 91 C25.02526787 98.10244999 25.04283201 105.20488848 25.05493164 112.30737305 C25.05997349 114.72567172 25.06680678 117.14396733 25.07543945 119.56225586 C25.08751157 123.02979283 25.09322963 126.49728966 25.09765625 129.96484375 C25.10281754 131.05337143 25.10797882 132.14189911 25.11329651 133.26341248 C25.11340981 134.76485558 25.11340981 134.76485558 25.11352539 136.29663086 C25.115746 137.18265488 25.11796661 138.06867889 25.12025452 138.98155212 C25 141 25 141 24 142 C22.30441274 142.09932153 20.60474253 142.13080007 18.90625 142.1328125 C17.87628906 142.13410156 16.84632813 142.13539063 15.78515625 142.13671875 C14.15900391 142.13091797 14.15900391 142.13091797 12.5 142.125 C11.41589844 142.12886719 10.33179688 142.13273438 9.21484375 142.13671875 C8.18488281 142.13542969 7.15492188 142.13414062 6.09375 142.1328125 C5.14177734 142.13168457 4.18980469 142.13055664 3.20898438 142.12939453 C1 142 1 142 0 141 C-0.09643778 139.17772313 -0.12187371 137.3516664 -0.12025452 135.52684021 C-0.12231651 133.74518463 -0.12231651 133.74518463 -0.12442017 131.92753601 C-0.12082489 130.61267715 -0.11722961 129.2978183 -0.11352539 127.94311523 C-0.11324352 126.55382286 -0.11340125 125.16453033 -0.1139679 123.77523804 C-0.11425588 119.99234711 -0.10835901 116.20948762 -0.10139394 112.42660403 C-0.09516055 108.47744323 -0.09455661 104.52828178 -0.09336853 100.57911682 C-0.09025517 93.09574925 -0.08204172 85.61239621 -0.07201904 78.12903506 C-0.06085805 69.61164267 -0.05534749 61.0942496 -0.05032361 52.57685173 C-0.03985911 35.05122606 -0.02225958 17.52561457 0 0 Z " fill="#416470" transform="translate(619,241)"/>
<path d="M0 0 C7.02901938 -0.12683815 14.0577434 -0.21436744 21.08764648 -0.2746582 C23.47870919 -0.29979315 25.86969514 -0.33390633 28.26049805 -0.37719727 C31.69859764 -0.43789061 35.13568096 -0.46622072 38.57421875 -0.48828125 C39.64210129 -0.51408768 40.70998383 -0.5398941 41.81022644 -0.56648254 C50.08665797 -0.56960612 50.08665797 -0.56960612 53.15161133 2.46801758 C54.06656372 3.72134888 54.06656372 3.72134888 55 5 C55.495 5.495 55.495 5.495 56 6 C56.11345864 8.60783251 56.16418189 11.18815594 56.16796875 13.796875 C56.17296135 14.97555145 56.17296135 14.97555145 56.17805481 16.17803955 C56.18312904 17.84590061 56.18546298 19.51377186 56.18530273 21.18164062 C56.18747898 23.72543314 56.20560063 26.2687849 56.22460938 28.8125 C56.2275453 30.43229018 56.22952876 32.05208243 56.23046875 33.671875 C56.23765427 34.43038757 56.24483978 35.18890015 56.25224304 35.97039795 C56.23000449 41.15405524 55.90223811 44.93351798 52.32324219 48.8215332 C49.00402046 50.50521156 46.51981826 50.14293667 42.828125 49.85546875 C42.1457074 49.80683182 41.46328979 49.75819489 40.76019287 49.70808411 C38.58866644 49.54980129 36.41969784 49.36898924 34.25 49.1875 C32.77485163 49.07598176 31.29959094 48.96593882 29.82421875 48.85742188 C26.21468704 48.58869802 22.60710305 48.29974786 19 48 C19 47.67 19 47.34 19 47 C19.92337158 46.98018066 20.84674316 46.96036133 21.7980957 46.93994141 C25.22561174 46.86182261 28.65268798 46.77513003 32.07983398 46.68261719 C33.56282212 46.64434653 35.04590248 46.60949022 36.52905273 46.578125 C38.66163072 46.532432 40.79357491 46.47444662 42.92578125 46.4140625 C44.20880127 46.3826416 45.49182129 46.3512207 46.8137207 46.31884766 C50.15387459 46.23620772 50.15387459 46.23620772 53 44 C53.31660663 41.13848823 53.44399819 38.49769255 53.43359375 35.6328125 C53.4388356 34.80167938 53.44407745 33.97054626 53.44947815 33.11422729 C53.45590778 31.35399493 53.45454919 29.59371966 53.44604492 27.83349609 C53.43755402 25.14212153 53.46624983 22.45288235 53.49804688 19.76171875 C53.49965945 18.05208397 53.49908027 16.34244543 53.49609375 14.6328125 C53.50732773 13.82852814 53.51856171 13.02424377 53.53013611 12.19558716 C53.489216 8.90647165 53.22363481 6.41851365 51.66333008 3.49853516 C47.28950194 1.03758025 42.82417553 1.39639148 37.890625 1.390625 C36.80867859 1.37408875 35.72673218 1.35755249 34.61199951 1.34051514 C31.15794242 1.29194899 27.70432589 1.27064434 24.25 1.25 C21.90752982 1.22184764 19.56508023 1.19192126 17.22265625 1.16015625 C11.48185104 1.08618776 5.74117018 1.03459573 0 1 C0 0.67 0 0.34 0 0 Z " fill="#36F7F6" transform="translate(142,170)"/>
<path d="M0 0 C0 0.66 0 1.32 0 2 C3.465 1.505 3.465 1.505 7 1 C7.33 1.66 7.66 2.32 8 3 C9.19238281 2.98839844 10.38476562 2.97679687 11.61328125 2.96484375 C13.17968594 2.95546408 14.74609231 2.94636407 16.3125 2.9375 C17.09818359 2.92912109 17.88386719 2.92074219 18.69335938 2.91210938 C19.45068359 2.90888672 20.20800781 2.90566406 20.98828125 2.90234375 C21.68477783 2.89710693 22.38127441 2.89187012 23.09887695 2.88647461 C25 3 25 3 28 4 C28.33 3.01 28.66 2.02 29 1 C30.43791516 1.14168137 31.8753237 1.28851043 33.3125 1.4375 C34.11300781 1.51871094 34.91351563 1.59992188 35.73828125 1.68359375 C38 2 38 2 41 3 C41 2.01 41 1.02 41 0 C43.64 0.66 46.28 1.32 49 2 C46.2170882 3.53850127 43.9551466 4.30901494 40.796875 4.6328125 C39.58547852 4.75897949 39.58547852 4.75897949 38.34960938 4.88769531 C37.49173828 4.96600586 36.63386719 5.04431641 35.75 5.125 C34.86119141 5.2084668 33.97238281 5.29193359 33.05664062 5.37792969 C19.37298409 6.57782083 4.89133276 7.52817513 -8 2 C-7 0 -7 0 -5.125 -0.6875 C-3 -1 -3 -1 0 0 Z " fill="#42E0DD" transform="translate(142,261)"/>
<path d="M0 0 C0.391875 0.53625 0.78375 1.0725 1.1875 1.625 C1.785625 2.40875 2.38375 3.1925 3 4 C3.78375 5.03125 4.5675 6.0625 5.375 7.125 C7.93379462 9.92748935 9.31656329 11.22453964 13 12 C13.99 11.34 14.98 10.68 16 10 C16.99 10 17.98 10 19 10 C18.01 9.34 17.02 8.68 16 8 C14.98131338 7.01904252 13.97648017 6.02297922 13 5 C14.216875 5.04125 15.43375 5.0825 16.6875 5.125 C21.17530149 5.11707102 24.39292294 4.44082771 27.8125 1.375 C28.204375 0.92125 28.59625 0.4675 29 0 C29.144375 0.804375 29.28875 1.60875 29.4375 2.4375 C29.74135249 4.92103706 29.74135249 4.92103706 31 6 C31.33 6.99 31.66 7.98 32 9 C30.73168307 9.81642254 29.46024069 10.62799105 28.1875 11.4375 C27.12595703 12.11619141 27.12595703 12.11619141 26.04296875 12.80859375 C21.97672832 15.17991943 18.63578291 15.37998221 14 15 C8.14335032 13.05519223 4.42461536 10.08503493 1 5 C0.1875 2.125 0.1875 2.125 0 0 Z " fill="#1D2D34" transform="translate(745,205)"/>
<path d="M0 0 C1.32 0.33 2.64 0.66 4 1 C3.41077809 4.48009188 2.47218694 7.36374089 1 10.5625 C-1.38345998 16.28798538 -1.7886777 21.85052102 -2 28 C-3.65 27.67 -5.3 27.34 -7 27 C-7.52349838 16.80147608 -6.29667277 8.2508126 0 0 Z " fill="#F5F7F8" transform="translate(97,219)"/>
<path d="M0 0 C0.99 0.33 1.98 0.66 3 1 C2.66499558 4.57338049 1.55527238 6.79798005 -0.4375 9.6875 C-3.42153772 14.19805412 -4.2727075 18.70270534 -5 24 C-5.99 24.33 -6.98 24.66 -8 25 C-8.66 24.67 -9.32 24.34 -10 24 C-10.62099683 16.85853644 -8.63969755 10.61831713 -4.3984375 4.8046875 C-2.98812203 3.15374949 -1.50085847 1.56907931 0 0 Z " fill="#F6F8F8" transform="translate(107,125)"/>
<path d="M0 0 C2.93458799 1.30918042 4.891496 2.63886632 7 5.0625 C7.474375 5.58972656 7.94875 6.11695313 8.4375 6.66015625 C14.63753157 15.94470353 14.53148164 24.69845006 14.390625 35.50390625 C14.3831531 37.19497505 14.37746466 38.88605258 14.37347412 40.57713318 C14.35829234 45.00123524 14.3190762 49.42480162 14.2746582 53.84869385 C14.23354338 58.37366492 14.21542868 62.8987236 14.1953125 67.42382812 C14.15257358 76.28278583 14.08441414 85.14134815 14 94 C13.67 94 13.34 94 13 94 C12.67 68.59 12.34 43.18 12 17 C11.34 17 10.68 17 10 17 C10 15.68 10 14.36 10 13 C9.34 13 8.68 13 8 13 C7.6596875 11.6078125 7.6596875 11.6078125 7.3125 10.1875 C5.75837871 6.41320544 4.44428247 5.94292857 1 4 C0.1875 1.8125 0.1875 1.8125 0 0 Z " fill="#01B0CC" transform="translate(253,54)"/>
<path d="M0 0 C0.33 0 0.66 0 1 0 C1.02526787 7.10244999 1.04283201 14.20488848 1.05493164 21.30737305 C1.05997349 23.72567172 1.06680678 26.14396733 1.07543945 28.56225586 C1.08751157 32.02979283 1.09322963 35.49728966 1.09765625 38.96484375 C1.10281754 40.05337143 1.10797882 41.14189911 1.11329651 42.26341248 C1.11340981 43.76485558 1.11340981 43.76485558 1.11352539 45.29663086 C1.115746 46.18265488 1.11796661 47.06867889 1.12025452 47.98155212 C1 50 1 50 0 51 C-1.70772358 51.08713831 -3.41898649 51.10700007 -5.12890625 51.09765625 C-6.68061523 51.09282227 -6.68061523 51.09282227 -8.26367188 51.08789062 C-9.35228516 51.07951172 -10.44089844 51.07113281 -11.5625 51.0625 C-13.2012207 51.05573242 -13.2012207 51.05573242 -14.87304688 51.04882812 C-17.58205432 51.0369984 -20.2910338 51.01906231 -23 51 C-23 46.71 -23 42.42 -23 38 C-22.67 38 -22.34 38 -22 38 C-22 41.63 -22 45.26 -22 49 C-15.07 49 -8.14 49 -1 49 C-0.67 32.83 -0.34 16.66 0 0 Z " fill="#35535D" transform="translate(643,332)"/>
<path d="M0 0 C0.5625 1.9375 0.5625 1.9375 1 4 C-1.03367219 6.03367219 -4.89007503 5.72799834 -7.6875 6.0625 C-8.39583984 6.15337891 -9.10417969 6.24425781 -9.83398438 6.33789062 C-13.91591925 6.83918087 -17.87846056 7.0973592 -22 7 C-22.33 5.68 -22.66 4.36 -23 3 C-15.69209942 -0.42557839 -7.89657407 -0.14563354 0 0 Z " fill="#F2F4F4" transform="translate(156,110)"/>
<path d="M0 0 C0.33 0 0.66 0 1 0 C1.07476563 0.67546875 1.14953125 1.3509375 1.2265625 2.046875 C2.06509091 7.98828899 2.06509091 7.98828899 5.75 12.5625 C8.91314502 13.96158337 11.56708891 14.67305609 15 15 C14.34 16.32 13.68 17.64 13 19 C13.99 19.33 14.98 19.66 16 20 C16 20.33 16 20.66 16 21 C9.42931136 21.46747982 5.24350693 21.47616445 0 17 C-0.57492187 16.608125 -1.14984375 16.21625 -1.7421875 15.8125 C-3 14 -3 14 -2.63671875 10.64453125 C-2.32347656 9.37996094 -2.01023437 8.11539063 -1.6875 6.8125 C-1.22923828 4.90404297 -1.22923828 4.90404297 -0.76171875 2.95703125 C-0.51035156 1.98121094 -0.25898437 1.00539062 0 0 Z " fill="#2F4E59" transform="translate(751,197)"/>
<path d="M0 0 C7.26 0 14.52 0 22 0 C22.33 1.32 22.66 2.64 23 4 C22 5 22 5 19.95874023 5.11352539 C19.08419189 5.10828857 18.20964355 5.10305176 17.30859375 5.09765625 C16.36435547 5.09443359 15.42011719 5.09121094 14.44726562 5.08789062 C13.45404297 5.07951172 12.46082031 5.07113281 11.4375 5.0625 C10.44041016 5.05798828 9.44332031 5.05347656 8.41601562 5.04882812 C5.94395151 5.03700007 3.47200482 5.02051849 1 5 C0.67 3.35 0.34 1.7 0 0 Z " fill="#FCFDFC" transform="translate(183,110)"/>
<path d="M0 0 C1.24330078 0.01353516 1.24330078 0.01353516 2.51171875 0.02734375 C3.10597656 0.03894531 3.70023438 0.05054688 4.3125 0.0625 C4.3125 0.3925 4.3125 0.7225 4.3125 1.0625 C2.6625 1.0625 1.0125 1.0625 -0.6875 1.0625 C-0.6875 1.7225 -0.6875 2.3825 -0.6875 3.0625 C-16.61874733 4.64218064 -32.73634226 5.83182637 -48.6875 4.0625 C-45.17749119 1.72249413 -43.59783615 1.77590714 -39.4375 1.68359375 C-37.56384766 1.63235352 -37.56384766 1.63235352 -35.65234375 1.58007812 C-33.68974609 1.54043945 -33.68974609 1.54043945 -31.6875 1.5 C-23.74735196 1.31171193 -15.87495613 1.06874508 -7.97021484 0.27416992 C-5.30585992 0.02711156 -2.67494387 -0.0387673 0 0 Z " fill="#41E3DB" transform="translate(190.6875,315.9375)"/>
<path d="M0 0 C0.87454834 0.00523682 1.74909668 0.01047363 2.65014648 0.01586914 C3.59438477 0.0190918 4.53862305 0.02231445 5.51147461 0.02563477 C6.50469727 0.03401367 7.49791992 0.04239258 8.52124023 0.05102539 C9.51833008 0.05553711 10.51541992 0.06004883 11.54272461 0.06469727 C14.01478872 0.07652532 16.48673541 0.0930069 18.95874023 0.11352539 C19.52124023 2.05102539 19.52124023 2.05102539 19.95874023 4.11352539 C18.95874023 5.11352539 18.95874023 5.11352539 16.91748047 5.22705078 C16.04293213 5.22181396 15.16838379 5.21657715 14.26733398 5.21118164 C13.3230957 5.20795898 12.37885742 5.20473633 11.40600586 5.20141602 C10.4127832 5.19303711 9.41956055 5.1846582 8.39624023 5.17602539 C7.39915039 5.17151367 6.40206055 5.16700195 5.37475586 5.16235352 C2.90269175 5.15052546 0.43074506 5.13404388 -2.04125977 5.11352539 C-2.60375977 3.17602539 -2.60375977 3.17602539 -3.04125977 1.11352539 C-2.04125977 0.11352539 -2.04125977 0.11352539 0 0 Z " fill="#FAFBFB" transform="translate(155.041259765625,190.886474609375)"/>
<path d="M0 0 C0 0.99 0 1.98 0 3 C-7.37635358 6.08963187 -13.97613274 8.59200675 -22 9 C-22.33 7.68 -22.66 6.36 -23 5 C-20.10875777 3.96419671 -17.21320686 2.9461498 -14.3125 1.9375 C-13.49587891 1.64294922 -12.67925781 1.34839844 -11.83789062 1.04492188 C-4.32355667 -1.54098252 -4.32355667 -1.54098252 0 0 Z " fill="#F7F8F9" transform="translate(220,282)"/>
<path d="M0 0 C0.33 0.99 0.66 1.98 1 3 C-4.18649108 7.87959812 -8.12139642 10.56904405 -15.375 11.375 C-19.83389685 10.91373481 -23.27759506 9.48765598 -27 7 C-27.33 6.34 -27.66 5.68 -28 5 C-27.01 4.67 -26.02 4.34 -25 4 C-24.01 3.34 -23.02 2.68 -22 2 C-21.67 2 -21.34 2 -21 2 C-20.34 1.67 -19.68 1.34 -19 1 C-15.83951352 1.40346636 -13.02542322 1.99152559 -10 3 C-10.66 3.66 -11.32 4.32 -12 5 C-12 5.66 -12 6.32 -12 7 C-11.34 7.33 -10.68 7.66 -10 8 C-12.64 8.33 -15.28 8.66 -18 9 C-11.92205857 8.72986927 -7.83239287 8.02699406 -3 4 C-1.16699091 1.89424357 -1.16699091 1.89424357 0 0 Z " fill="#121E23" transform="translate(693,208)"/>
<path d="M0 0 C3.86372194 0.55779084 6.32330495 1.62670526 9.5 3.875 C12.00068255 5.62840012 14.35781861 7.18986294 17.0625 8.625 C17.701875 9.07875 18.34125 9.5325 19 10 C19 11.32 19 12.64 19 14 C12.17790714 13.47522363 6.67523199 10.1532355 1.4375 5.9375 C0 4 0 4 0 0 Z " fill="#F4F5F6" transform="translate(104,273)"/>
<path d="M0 0 C7.92 0 15.84 0 24 0 C23.67 1.32 23.34 2.64 23 4 C15.41 4 7.82 4 0 4 C0 2.68 0 1.36 0 0 Z " fill="#FCFDFC" transform="translate(150,290)"/>
<path d="M0 0 C0.99 0 1.98 0 3 0 C3.8353125 0.86625 3.8353125 0.86625 4.6875 1.75 C7.34807747 4.33866997 9.89907947 5.46455251 13.29296875 6.875 C15 8 15 8 15.73828125 10.125 C15.82464844 10.74375 15.91101563 11.3625 16 12 C13.69526085 12.7904896 12.39633563 13.12134332 10.03515625 12.3984375 C5.68330661 10.1406462 2.06080839 7.94943019 -1 4 C-0.8125 1.6875 -0.8125 1.6875 0 0 Z " fill="#F6F8F8" transform="translate(108,178)"/>
<path d="M0 0 C0.33 0.66 0.66 1.32 1 2 C0.69578125 2.89203125 0.3915625 3.7840625 0.078125 4.703125 C-1.0783613 8.23962658 -1.26708962 11.04155297 -1.25 14.75 C-1.25773437 16.44382813 -1.25773437 16.44382813 -1.265625 18.171875 C-1.29068303 21.13457435 -1.29068303 21.13457435 1 23 C1.125 25.625 1.125 25.625 1 28 C1.94875 27.95875 2.8975 27.9175 3.875 27.875 C7 28 7 28 9 30 C9 32 9 34 9 36 C4.14028444 34.85653752 2.03228166 32.05594113 -0.70703125 28.140625 C-4.10162719 22.52056888 -4.72451083 16.41405176 -4 10 C-1.97530864 1.97530864 -1.97530864 1.97530864 0 0 Z " fill="#44E9E5" transform="translate(124,225)"/>
<path d="M0 0 C0.33 0 0.66 0 1 0 C1.14536813 4.39548491 1.23409948 8.79035087 1.3125 13.1875 C1.35439453 14.43337891 1.39628906 15.67925781 1.43945312 16.96289062 C1.45556641 18.16494141 1.47167969 19.36699219 1.48828125 20.60546875 C1.51446533 21.71043701 1.54064941 22.81540527 1.56762695 23.95385742 C0.79233907 28.11440233 -0.58712867 29.54464768 -4 32 C-7.41333008 32.3840332 -7.41333008 32.3840332 -11.26953125 32.05078125 C-11.95053391 31.99931442 -12.63153656 31.9478476 -13.33317566 31.89482117 C-15.4958491 31.72563164 -17.65317015 31.51969748 -19.8125 31.3125 C-21.28300314 31.19091596 -22.75370825 31.07174878 -24.22460938 30.95507812 C-27.81916901 30.66466744 -31.40986772 30.34123841 -35 30 C-35 29.67 -35 29.34 -35 29 C-33.61494263 28.970271 -33.61494263 28.970271 -32.2019043 28.93994141 C-28.77438826 28.86182261 -25.34731202 28.77513003 -21.92016602 28.68261719 C-20.43717788 28.64434653 -18.95409752 28.60949022 -17.47094727 28.578125 C-15.33836928 28.532432 -13.20642509 28.47444662 -11.07421875 28.4140625 C-9.79119873 28.3826416 -8.50817871 28.3512207 -7.1862793 28.31884766 C-3.84612541 28.23620772 -3.84612541 28.23620772 -1 26 C-0.489395 23.28995497 -0.489395 23.28995497 -0.48828125 20.1171875 C-0.45283203 18.95058594 -0.41738281 17.78398437 -0.38085938 16.58203125 C-0.35830078 15.35871094 -0.33574219 14.13539063 -0.3125 12.875 C-0.27833984 11.64394531 -0.24417969 10.41289062 -0.20898438 9.14453125 C-0.12628436 6.0964449 -0.05720573 3.04865429 0 0 Z " fill="#3DEEED" transform="translate(196,188)"/>
<path d="M0 0 C0.33 0 0.66 0 1 0 C1.0093457 0.58789307 1.01869141 1.17578613 1.02832031 1.78149414 C1.27432185 14.14789492 2.17597962 25.21047301 6 37 C6.68244117 39.32911316 7.34142408 41.66397509 8 44 C6.35 44 4.7 44 3 44 C2 41 2 41 2.5234375 38.6171875 C3.07603071 35.5824543 2.63095159 34.01364998 1.625 31.125 C-1.62368601 21.02292158 -1.97593016 10.42852029 0 0 Z " fill="#44ECE7" transform="translate(60,232)"/>
<path d="M0 0 C0 0.66 0 1.32 0 2 C2.97 2 5.94 2 9 2 C7 4 7 4 5.0300293 4.24291992 C4.21961182 4.23881104 3.40919434 4.23470215 2.57421875 4.23046875 C1.64544922 4.22917969 0.71667969 4.22789062 -0.24023438 4.2265625 C-1.25408203 4.21367187 -2.26792969 4.20078125 -3.3125 4.1875 C-4.35599609 4.18105469 -5.39949219 4.17460937 -6.47460938 4.16796875 C-19.65574524 4.04412954 -32.83001645 3.52995653 -46 3 C-46 2.67 -46 2.34 -46 2 C-45.02240723 1.97494385 -44.04481445 1.9498877 -43.03759766 1.92407227 C-39.3659439 1.82898346 -35.69443539 1.72902248 -32.02294922 1.62768555 C-30.44225493 1.58471615 -28.86152545 1.54301955 -27.28076172 1.50268555 C-15.5001165 1.21019307 -15.5001165 1.21019307 -3.76318359 0.19897461 C-2 0 -2 0 0 0 Z " fill="#191519" transform="translate(185,213)"/>
<path d="M0 0 C-1 2 -1 2 -2.84765625 2.6328125 C-3.57855469 2.79523438 -4.30945313 2.95765625 -5.0625 3.125 C-6.16271484 3.37636719 -6.16271484 3.37636719 -7.28515625 3.6328125 C-7.85105469 3.75398437 -8.41695312 3.87515625 -9 4 C-9.103125 4.680625 -9.20625 5.36125 -9.3125 6.0625 C-10 9 -10 9 -11.5625 12.1875 C-13.60623255 16.67180637 -13.26246923 21.16862192 -13 26 C-15 25 -15 25 -16 22 C-16.50849203 15.77097262 -16.73444209 10.27972848 -13 5 C-8.46436739 0.90686813 -6.06738526 -0.13189968 0 0 Z " fill="#30E5E8" transform="translate(142,138)"/>
<path d="M0 0 C0.66 0.33 1.32 0.66 2 1 C0.75945552 2.01170618 -0.4928702 3.00897797 -1.75 4 C-2.44609375 4.556875 -3.1421875 5.11375 -3.859375 5.6875 C-6 7 -6 7 -10 7 C-10.84304687 7.73669922 -10.84304687 7.73669922 -11.703125 8.48828125 C-15.22850035 10.8085538 -18.63192324 10.32067164 -22.75 10.1875 C-23.54277344 10.17396484 -24.33554688 10.16042969 -25.15234375 10.14648438 C-27.10185564 10.11125223 -29.05101626 10.05744821 -31 10 C-28.19207126 8.48607339 -25.58379266 7.53923115 -22.48046875 6.81640625 C-21.62259766 6.61080078 -20.76472656 6.40519531 -19.88085938 6.19335938 C-18.09726275 5.77559164 -16.31341137 5.35890992 -14.52929688 4.94335938 C-10.51957335 3.98066584 -6.74820751 2.99029643 -2.98828125 1.27734375 C-2.00214844 0.85582031 -1.01601562 0.43429687 0 0 Z " fill="#45EEED" transform="translate(227,306)"/>
<path d="M0 0 C0.66 0 1.32 0 2 0 C1.979375 1.134375 1.95875 2.26875 1.9375 3.4375 C1.58422523 6.81575674 1.58422523 6.81575674 3 8 C4.47250645 8.12232644 5.95065711 8.1777456 7.42797852 8.20532227 C8.83932823 8.2352401 8.83932823 8.2352401 10.27919006 8.26576233 C11.30209641 8.28247482 12.32500275 8.29918732 13.37890625 8.31640625 C14.42070541 8.33718735 15.46250458 8.35796844 16.53587341 8.37937927 C19.87801247 8.44499057 23.22023285 8.50381331 26.5625 8.5625 C28.82227418 8.60567422 31.08204001 8.64928814 33.34179688 8.69335938 C38.89444421 8.80068367 44.44717321 8.90242812 50 9 C50 9.33 50 9.66 50 10 C43.20071581 10.0505894 36.4014799 10.08568667 29.60205078 10.10986328 C27.28757921 10.11993892 24.97312041 10.13359975 22.65869141 10.15087891 C19.33753307 10.17505865 16.0165426 10.1864673 12.6953125 10.1953125 C11.65569366 10.20563507 10.61607483 10.21595764 9.54495239 10.22659302 C8.58410736 10.22674408 7.62326233 10.22689514 6.63330078 10.22705078 C5.78502716 10.231492 4.93675354 10.23593323 4.06277466 10.24050903 C2 10 2 10 0 8 C-0.6875 4.4375 -0.6875 4.4375 -1 1 C-0.67 0.67 -0.34 0.34 0 0 Z " fill="#375760" transform="translate(769,273)"/>
<path d="M0 0 C5.15452001 1.93169391 9.96925143 4.47098232 14.85351562 6.99023438 C19.47613113 9.33914235 24.11589895 11.25528753 29 13 C24.45753931 14.47604848 21.24649646 12.85590888 17 11.125 C15.58406953 10.56324498 14.16742309 10.00329062 12.75 9.4453125 C12.12609375 9.19281738 11.5021875 8.94032227 10.859375 8.68017578 C8.97870027 7.9337003 8.97870027 7.9337003 6.828125 7.59716797 C6.22484375 7.40010254 5.6215625 7.20303711 5 7 C4.67 6.01 4.34 5.02 4 4 C2.70644173 2.62804426 1.37701298 1.28817344 0 0 Z " fill="#48EEEA" transform="translate(89,300)"/>
<path d="M0 0 C0.92232422 0.00902344 1.84464844 0.01804688 2.79492188 0.02734375 C5.05105809 0.0507234 7.30663684 0.08349084 9.5625 0.125 C7.21596154 2.47153846 6.68630653 2.3946755 3.5 2.50390625 C2.70335937 2.53806641 1.90671875 2.57222656 1.0859375 2.60742188 C-0.16316406 2.64706055 -0.16316406 2.64706055 -1.4375 2.6875 C-3.08348081 2.74737701 -4.72933079 2.81100242 -6.375 2.87890625 C-7.10589844 2.90283447 -7.83679688 2.9267627 -8.58984375 2.95141602 C-10.53189895 3.02153634 -10.53189895 3.02153634 -12.4375 4.125 C-14.43710012 4.164992 -16.43797242 4.16846799 -18.4375 4.125 C-17.4375 2.125 -17.4375 2.125 -14.52734375 1.0078125 C-9.71774351 -0.24836216 -4.93730549 -0.09241897 0 0 Z " fill="#3EF1EF" transform="translate(149.4375,215.875)"/>
<path d="M0 0 C-0.7734375 0.37125 -0.7734375 0.37125 -1.5625 0.75 C-8.75122959 4.19364395 -8.75122959 4.19364395 -14 10 C-14.66 9.67 -15.32 9.34 -16 9 C-16.33 9.66 -16.66 10.32 -17 11 C-19.0625 11.625 -19.0625 11.625 -21 12 C-19.56323497 8.45034523 -17.88698102 6.92912058 -14.6875 4.875 C-13.92824219 4.37742187 -13.16898438 3.87984375 -12.38671875 3.3671875 C-8.17194717 0.9528339 -4.88366677 -0.27906667 0 0 Z " fill="#11B3D0" transform="translate(49,49)"/>
<path d="M0 0 C2.51887427 0.03825393 4.98950444 0.14436589 7.5 0.3125 C8.20253906 0.34794922 8.90507812 0.38339844 9.62890625 0.41992188 C11.42594233 0.53591553 13.21525847 0.76022748 15 1 C15.33 1.66 15.66 2.32 16 3 C14.700625 3.12375 13.40125 3.2475 12.0625 3.375 C7.28150048 3.89863328 2.66885899 4.86313835 -2 6 C-1.34 5.67 -0.68 5.34 0 5 C-0.2784375 4.0409375 -0.2784375 4.0409375 -0.5625 3.0625 C-0.7790625 2.0415625 -0.7790625 2.0415625 -1 1 C-0.67 0.67 -0.34 0.34 0 0 Z " fill="#3EE7E4" transform="translate(212,252)"/>
<path d="M0 0 C8.75502384 0.19032661 15.14595682 5.90372055 21 12 C20.67 12.66 20.34 13.32 20 14 C19.54109375 13.57847656 19.0821875 13.15695313 18.609375 12.72265625 C17.99578125 12.17480469 17.3821875 11.62695312 16.75 11.0625 C16.14671875 10.51722656 15.5434375 9.97195312 14.921875 9.41015625 C12.90018117 7.92675895 11.42041469 7.51574237 9 7 C8 6 7 5 6 4 C4.02379014 2.95377125 2.0262871 1.94560065 0 1 C0 0.67 0 0.34 0 0 Z " fill="#19272E" transform="translate(815,241)"/>
<path d="M0 0 C0.33 0.66 0.66 1.32 1 2 C0.01 2.66 -0.98 3.32 -2 4 C-1.67 4.66 -1.34 5.32 -1 6 C-0.67 6.99 -0.34 7.98 0 9 C-0.66 9.66 -1.32 10.32 -2 11 C-2.598125 10.814375 -3.19625 10.62875 -3.8125 10.4375 C-6.17762974 9.72633417 -6.17762974 9.72633417 -8.75 11.4375 C-9.4925 11.953125 -10.235 12.46875 -11 13 C-9.56951306 9.81716656 -7.80982757 7.42084342 -5.5 4.8125 C-4.58734375 3.77029297 -4.58734375 3.77029297 -3.65625 2.70703125 C-2 1 -2 1 0 0 Z " fill="#213238" transform="translate(84,193)"/>
<path d="M0 0 C1.62490954 -0.02698189 3.24994633 -0.04638757 4.875 -0.0625 C5.77992188 -0.07410156 6.68484375 -0.08570313 7.6171875 -0.09765625 C10 0 10 0 12 1 C12 2.32 12 3.64 12 5 C11.01 5.495 11.01 5.495 10 6 C9.67 6.66 9.34 7.32 9 8 C6.03 7.67 3.06 7.34 0 7 C3 5 3 5 6 5 C5.01 4.34 4.02 3.68 3 3 C1.98131338 2.01904252 0.97648017 1.02297922 0 0 Z " fill="#1F333B" transform="translate(758,210)"/>
<path d="M0 0 C0.66 0.33 1.32 0.66 2 1 C1.46890625 1.58007812 0.9378125 2.16015625 0.390625 2.7578125 C-3.45289594 7.00812945 -6.91065616 11.1806236 -10 16 C-10.33 16 -10.66 16 -11 16 C-11 13.69 -11 11.38 -11 9 C-10.0409375 8.5978125 -10.0409375 8.5978125 -9.0625 8.1875 C-6.66868314 7.11332248 -6.66868314 7.11332248 -6 4 C-5.01 4 -4.02 4 -3 4 C-2.67 3.01 -2.34 2.02 -2 1 C-1.34 0.67 -0.68 0.34 0 0 Z " fill="#3BEDEC" transform="translate(80,194)"/>
<path d="M0 0 C0 3.53569618 -0.42644402 3.88174039 -2.8125 6.3125 C-7.19829242 10.51032988 -12.31450207 13.84072973 -18 16 C-20.33203125 15.65625 -20.33203125 15.65625 -22 15 C-21.01257813 14.51789063 -20.02515625 14.03578125 -19.0078125 13.5390625 C-17.7134369 12.90125423 -16.41917179 12.26322171 -15.125 11.625 C-14.47402344 11.30789063 -13.82304688 10.99078125 -13.15234375 10.6640625 C-10.41822959 9.31109879 -8.17227482 8.17227482 -6 6 C-5.35232207 3.42938689 -5.35232207 3.42938689 -5 1 C-3.68 1 -2.36 1 -1 1 C-0.67 0.67 -0.34 0.34 0 0 Z " fill="#0A1013" transform="translate(837,326)"/>
<path d="M0 0 C1 3 1 3 1.4375 6.4375 C1.91928541 9.48880759 2.43789959 11.39649931 4 14 C3.4225 13.814375 2.845 13.62875 2.25 13.4375 C-0.20692525 12.95976454 -1.64397534 13.24270636 -4 14 C-5.28300777 11.43398445 -4.85098078 10.33520676 -4.25 7.5625 C-4.09015625 6.78003906 -3.9303125 5.99757812 -3.765625 5.19140625 C-2.92019598 2.77158136 -1.92920301 1.64830257 0 0 Z " fill="#1D2E35" transform="translate(668,195)"/>
<path d="M0 0 C0.70511719 0.71542969 1.41023438 1.43085938 2.13671875 2.16796875 C4.94539715 4.97664715 7.86524896 7.64932135 10.8125 10.3125 C12.27623047 11.63701172 12.27623047 11.63701172 13.76953125 12.98828125 C14.50558594 13.65214844 15.24164063 14.31601562 16 15 C15.01 15.495 15.01 15.495 14 16 C11.375 15.0625 11.375 15.0625 9 14 C9 13.34 9 12.68 9 12 C8.34 11.67 7.68 11.34 7 11 C6.34 10.01 5.68 9.02 5 8 C4.319375 7.731875 3.63875 7.46375 2.9375 7.1875 C1 6 1 6 0.25 2.875 C0.1675 1.92625 0.085 0.9775 0 0 Z " fill="#46F0ED" transform="translate(73,284)"/>
<path d="M0 0 C0.66 0 1.32 0 2 0 C2 0.99 2 1.98 2 3 C3.32 2.01 4.64 1.02 6 0 C6.33 0.66 6.66 1.32 7 2 C9.91765 3.9451 11.62537285 4.45276317 15 5 C12.72977301 6.38592445 11.43405459 7.03309948 8.74609375 6.828125 C7.98425781 6.63734375 7.22242188 6.4465625 6.4375 6.25 C5.67308594 6.06953125 4.90867188 5.8890625 4.12109375 5.703125 C2 5 2 5 -1 3 C-0.67 2.01 -0.34 1.02 0 0 Z " fill="#30E2E2" transform="translate(131,164)"/>
<path d="M0 0 C3.15069422 1.36689554 5.00891774 2.85657885 7.1875 5.5 C7.95126953 6.41265625 7.95126953 6.41265625 8.73046875 7.34375 C11.22769149 10.60166521 11.08781683 12.96042586 11 17 C10.67 15.68 10.34 14.36 10 13 C9.34 13 8.68 13 8 13 C7.6596875 11.6078125 7.6596875 11.6078125 7.3125 10.1875 C5.75837871 6.41320544 4.44428247 5.94292857 1 4 C0.1875 1.8125 0.1875 1.8125 0 0 Z " fill="#0FAED0" transform="translate(253,54)"/>
<path d="M0 0 C1.65 0.33 3.3 0.66 5 1 C3.6273219 3.95653744 2.18311636 6.5649856 0 9 C-2.1875 9.75 -2.1875 9.75 -4 10 C-2.8905928 6.51329166 -1.73662334 3.22515763 0 0 Z " fill="#304D58" transform="translate(712,325)"/>
<path d="M0 0 C-3.20760251 3.80635497 -6.40746109 7.54563567 -10 11 C-10.66 10.67 -11.32 10.34 -12 10 C-10.35120321 3.40481284 -7.259327 -0.82963737 0 0 Z " fill="#38E0DB" transform="translate(135,219)"/>
<path d="M0 0 C0.33 0.66 0.66 1.32 1 2 C0.07421875 4.57421875 0.07421875 4.57421875 -1.3125 7.6875 C-3.22378387 12.09938026 -4.83517149 16.34068596 -6 21 C-6.33 21 -6.66 21 -7 21 C-6.88658363 18.68690295 -6.75896193 16.37449815 -6.625 14.0625 C-6.55539063 12.77472656 -6.48578125 11.48695313 -6.4140625 10.16015625 C-6.27742188 9.11730469 -6.14078125 8.07445312 -6 7 C-5.34 6.67 -4.68 6.34 -4 6 C-3.34786708 3.97536745 -3.34786708 3.97536745 -3 2 C-2.34 2.33 -1.68 2.66 -1 3 C-0.67 2.01 -0.34 1.02 0 0 Z " fill="#3FECE9" transform="translate(68,210)"/>
<path d="M0 0 C-2.57516622 2.63746863 -4.54331396 3.21887499 -8.109375 3.29296875 C-9.65652231 3.27313353 -11.20353396 3.2375101 -12.75 3.1875 C-13.54277344 3.17396484 -14.33554688 3.16042969 -15.15234375 3.14648438 C-17.10185564 3.11125223 -19.05101626 3.05744821 -21 3 C-17.34376283 0.7781328 -13.54241246 0.3274389 -9.375 -0.1875 C-8.694375 -0.28224609 -8.01375 -0.37699219 -7.3125 -0.47460938 C-2.25783703 -1.12891851 -2.25783703 -1.12891851 0 0 Z " fill="#43E1DB" transform="translate(217,313)"/>
<path d="M0 0 C0.66 0.33 1.32 0.66 2 1 C1.43410156 1.36351563 0.86820313 1.72703125 0.28515625 2.1015625 C-4.56199234 5.29012549 -4.56199234 5.29012549 -7 10.375 C-7 11.24125 -7 12.1075 -7 13 C-9.475 12.01 -9.475 12.01 -12 11 C-10.68774191 7.06322574 -8.8038606 6.1728218 -5.4375 3.8125 C-4.42558594 3.09707031 -3.41367188 2.38164063 -2.37109375 1.64453125 C-1.58863281 1.10183594 -0.80617188 0.55914062 0 0 Z " fill="#212A2F" transform="translate(97,101)"/>
<path d="M0 0 C0.66 0.33 1.32 0.66 2 1 C1.125 5.75 1.125 5.75 0 8 C-0.99 8 -1.98 8 -3 8 C-3 7.34 -3 6.68 -3 6 C-3.66 6 -4.32 6 -5 6 C-5.33 6.66 -5.66 7.32 -6 8 C-6.66 7.67 -7.32 7.34 -8 7 C-8 6.34 -8 5.68 -8 5 C-7.05125 4.731875 -6.1025 4.46375 -5.125 4.1875 C-1.74732727 3.25013412 -1.74732727 3.25013412 0 0 Z " fill="#27D8E4" transform="translate(231,130)"/>
<path d="M0 0 C0.33 0.66 0.66 1.32 1 2 C0.07421875 4.71484375 0.07421875 4.71484375 -1.3125 7.9375 C-1.98732422 9.52884766 -1.98732422 9.52884766 -2.67578125 11.15234375 C-4 14 -4 14 -6 17 C-5.82316211 10.05509386 -4.11844576 5.57737857 0 0 Z " fill="#11B0CF" transform="translate(27,61)"/>
<path d="M0 0 C1.28031581 3.84094744 0.48410185 5.47584191 -0.97265625 9.12109375 C-2.45511544 11.83235942 -4.15298701 12.904995 -7 14 C-7.66 13.67 -8.32 13.34 -9 13 C-8.60167969 12.56429688 -8.20335937 12.12859375 -7.79296875 11.6796875 C-4.51063169 7.99005314 -2.00600254 4.56922802 0 0 Z " fill="#152227" transform="translate(700,303)"/>
<path d="M0 0 C3.88975419 3.59054233 6.89732195 7.73898882 10 12 C9.67 12.66 9.34 13.32 9 14 C8.5875 13.525625 8.175 13.05125 7.75 12.5625 C5.817815 10.83733482 4.51807725 10.43415125 2 10 C2.33 9.01 2.66 8.02 3 7 C2.04906703 5.30485863 1.04892238 3.63631892 0 2 C0 1.34 0 0.68 0 0 Z " fill="#3CECEB" transform="translate(75,178)"/>
<path d="M0 0 C4.31612964 0.50187554 7.64223849 1.13602695 11 4 C11.3125 7.1875 11.3125 7.1875 11 10 C10.76539062 9.39671875 10.53078125 8.7934375 10.2890625 8.171875 C8.6846427 5.46867073 7.14941313 4.67684104 4.375 3.25 C3.55773437 2.82203125 2.74046875 2.3940625 1.8984375 1.953125 C1.27195312 1.63859375 0.64546875 1.3240625 0 1 C0 0.67 0 0.34 0 0 Z " fill="#19292E" transform="translate(113,277)"/>
<path d="M0 0 C-1.89248819 0.67610423 -3.7891602 1.34050439 -5.6875 2 C-7.27111328 2.556875 -7.27111328 2.556875 -8.88671875 3.125 C-11.78362056 3.9391857 -14.01700623 4.17709796 -17 4 C-16.34 3.67 -15.68 3.34 -15 3 C-15 2.34 -15 1.68 -15 1 C-13.0641649 0.63684334 -11.12624752 0.28477269 -9.1875 -0.0625 C-8.10855469 -0.25972656 -7.02960938 -0.45695312 -5.91796875 -0.66015625 C-3 -1 -3 -1 0 0 Z " fill="#43ECE8" transform="translate(209,259)"/>
<path d="M0 0 C2.31 0 4.62 0 7 0 C7 0.66 7 1.32 7 2 C5.40233897 2.86627399 3.79660056 3.71766465 2.1875 4.5625 C1.29417969 5.03816406 0.40085937 5.51382813 -0.51953125 6.00390625 C-3 7 -3 7 -6 6 C-5.195625 5.566875 -4.39125 5.13375 -3.5625 4.6875 C-0.72153646 3.19525998 -0.72153646 3.19525998 0 0 Z " fill="#26DBEA" transform="translate(102,94)"/>
<path d="M0 0 C0.928125 0.5259375 0.928125 0.5259375 1.875 1.0625 C2.57625 1.371875 3.2775 1.68125 4 2 C4.66 1.67 5.32 1.34 6 1 C5.6875 3.375 5.6875 3.375 5 6 C4.01 6.66 3.02 7.32 2 8 C1.01 7.01 0.02 6.02 -1 5 C-0.34 5 0.32 5 1 5 C0.67 3.35 0.34 1.7 0 0 Z " fill="#1B2D35" transform="translate(774,205)"/>
<path d="M0 0 C0 0.33 0 0.66 0 1 C-1.65 1 -3.3 1 -5 1 C-5 1.66 -5 2.32 -5 3 C-9.29 2.67 -13.58 2.34 -18 2 C-18 1.67 -18 1.34 -18 1 C-11.95170514 0.10395632 -6.1105424 -0.11269443 0 0 Z " fill="#46F0EB" transform="translate(195,316)"/>
<path d="M0 0 C2.31 0 4.62 0 7 0 C7 0.66 7 1.32 7 2 C7.66 2.33 8.32 2.66 9 3 C2.375 4.25 2.375 4.25 -1 2 C-0.67 1.34 -0.34 0.68 0 0 Z " fill="#26404A" transform="translate(674,213)"/>
<path d="M0 0 C2.31 1.65 4.62 3.3 7 5 C3.63997871 6.1200071 2.36541324 5.8208325 -1 5 C-2.1446875 4.7215625 -2.1446875 4.7215625 -3.3125 4.4375 C-3.869375 4.293125 -4.42625 4.14875 -5 4 C-4.67 3.34 -4.34 2.68 -4 2 C-2.68 2 -1.36 2 0 2 C0 1.34 0 0.68 0 0 Z " fill="#2F4F5C" transform="translate(668,206)"/>
<path d="M0 0 C-0.7734375 0.37125 -0.7734375 0.37125 -1.5625 0.75 C-3.90843581 1.90822931 -3.90843581 1.90822931 -5.68359375 3.05859375 C-10.5441464 6.07945336 -10.5441464 6.07945336 -13.21875 5.61328125 C-13.8065625 5.41089844 -14.394375 5.20851563 -15 5 C-13.44424022 4.15415002 -11.8800388 3.32381601 -10.3125 2.5 C-9.44238281 2.0359375 -8.57226562 1.571875 -7.67578125 1.09375 C-4.88211171 -0.04818792 -2.98370887 -0.21504208 0 0 Z " fill="#0BA5CC" transform="translate(49,49)"/>
<path d="M0 0 C1 3 1 3 1 6 C-1.31 6.66 -3.62 7.32 -6 8 C-4.55746343 4.63408134 -2.66735273 2.48952921 0 0 Z " fill="#1A2E35" transform="translate(401,251)"/>
<path d="M0 0 C0.66 0 1.32 0 2 0 C2.25 2.25 2.25 2.25 2 5 C0 7.3125 0 7.3125 -2 9 C-2.125 5.625 -2.125 5.625 -2 2 C-1.34 1.34 -0.68 0.68 0 0 Z " fill="#3BE3E0" transform="translate(71,201)"/>
<path d="M0 0 C-1.32 0.33 -2.64 0.66 -4 1 C-4 1.66 -4 2.32 -4 3 C-6.31 3.33 -8.62 3.66 -11 4 C-7.84441727 0.34616736 -4.73375145 -1.57791715 0 0 Z " fill="#1C292F" transform="translate(422,240)"/>
<path d="M0 0 C0 4.61538462 0 4.61538462 -1 7 C-3.5625 8.25 -3.5625 8.25 -6 9 C-4.68775452 5.06326356 -3.08089673 2.77280706 0 0 Z " fill="#162128" transform="translate(756,251)"/>
<path d="M0 0 C0.12375 0.61875 0.2475 1.2375 0.375 1.875 C0.87197356 4.19120832 0.87197356 4.19120832 3 6 C1.35 6.33 -0.3 6.66 -2 7 C-2 6.34 -2 5.68 -2 5 C-2.66 4.67 -3.32 4.34 -4 4 C-2.68 2.68 -1.36 1.36 0 0 Z " fill="#2B4955" transform="translate(686,208)"/>
<path d="M0 0 C0.66 0 1.32 0 2 0 C1.64950425 3.24208567 1.43778819 4.61527704 -1.0625 6.8125 C-1.701875 7.204375 -2.34125 7.59625 -3 8 C-2.25 2.25 -2.25 2.25 0 0 Z " fill="#2D4D57" transform="translate(692,205)"/>
<path d="M0 0 C0.99 0.33 1.98 0.66 3 1 C1.25 4.875 1.25 4.875 -1 6 C-2.99960012 6.039992 -5.00047242 6.04346799 -7 6 C-7 5.67 -7 5.34 -7 5 C-5.35 4.67 -3.7 4.34 -2 4 C-2.66 3.34 -3.32 2.68 -4 2 C-2.68 2 -1.36 2 0 2 C0 1.34 0 0.68 0 0 Z " fill="#111C21" transform="translate(793,198)"/>
<path d="M0 0 C0 0.66 0 1.32 0 2 C0.66 2.33 1.32 2.66 2 3 C-2.29 3 -6.58 3 -11 3 C-11 2.67 -11 2.34 -11 2 C-9.5422647 1.664061 -8.08378894 1.33133376 -6.625 1 C-5.40683594 0.7215625 -5.40683594 0.7215625 -4.1640625 0.4375 C-2 0 -2 0 0 0 Z " fill="#21C5DF" transform="translate(205,85)"/>
<path d="M0 0 C3.71888239 0.50712033 6.73454239 1.11608215 10 3 C9.67 3.66 9.34 4.32 9 5 C6.03 4.01 3.06 3.02 0 2 C0 1.34 0 0.68 0 0 Z " fill="#40D9D1" transform="translate(105,311)"/>
<path d="M0 0 C0.66 0.33 1.32 0.66 2 1 C-0.35380297 4.92300495 -2.64464931 5.83857315 -7 7 C-4.78071806 4.09197539 -3.07030857 2.04687238 0 0 Z " fill="#162427" transform="translate(409,244)"/>
<path d="M0 0 C6.52307692 0.61538462 6.52307692 0.61538462 8.9375 2.5625 C9.288125 3.036875 9.63875 3.51125 10 4 C6.28111761 3.49287967 3.26545761 2.88391785 0 1 C0 0.67 0 0.34 0 0 Z " fill="#203139" transform="translate(815,241)"/>
<path d="M0 0 C-2.64 1.98 -5.28 3.96 -8 6 C-8 3 -8 3 -7 1 C-2.44155844 -1.22077922 -2.44155844 -1.22077922 0 0 Z " fill="#40E3DE" transform="translate(229,307)"/>
<path d="M0 0 C3.3 0.33 6.6 0.66 10 1 C10 1.33 10 1.66 10 2 C9.071875 2.144375 8.14375 2.28875 7.1875 2.4375 C3.99274889 2.92100111 3.99274889 2.92100111 1 4 C0.01 3.34 -0.98 2.68 -2 2 C-1.34 2 -0.68 2 0 2 C0 1.34 0 0.68 0 0 Z " fill="#23C0D8" transform="translate(131,86)"/>
<path d="M0 0 C0 3 0 3 -1.375 4.6875 C-3 6 -3 6 -5 6 C-5 4.35 -5 2.7 -5 1 C-3.68 1 -2.36 1 -1 1 C-0.67 0.67 -0.34 0.34 0 0 Z " fill="#17262D" transform="translate(837,326)"/>
<path d="M0 0 C1.32 0 2.64 0 4 0 C4.33 1.65 4.66 3.3 5 5 C4.01 5.495 4.01 5.495 3 6 C3 5.34 3 4.68 3 4 C2.34 3.67 1.68 3.34 1 3 C0.67 2.01 0.34 1.02 0 0 Z " fill="#2D4853" transform="translate(837,314)"/>
<path d="M0 0 C1.32 0.33 2.64 0.66 4 1 C3.67 1.99 3.34 2.98 3 4 C0.4375 5.1875 0.4375 5.1875 -2 6 C-1.34 4.02 -0.68 2.04 0 0 Z " fill="#2C4B56" transform="translate(392,264)"/>
<path d="M0 0 C5.53846154 0.49230769 5.53846154 0.49230769 7.875 3.0625 C8.431875 4.0215625 8.431875 4.0215625 9 5 C6.69 4.34 4.38 3.68 2 3 C2 2.34 2 1.68 2 1 C1.34 0.67 0.68 0.34 0 0 Z " fill="#45E4DE" transform="translate(80,295)"/>
<path d="M0 0 C2.97 0.33 5.94 0.66 9 1 C9 1.33 9 1.66 9 2 C5.7 2.33 2.4 2.66 -1 3 C-0.67 2.01 -0.34 1.02 0 0 Z " fill="#3ADBD2" transform="translate(171,262)"/>
<path d="M0 0 C0.99 0.99 1.98 1.98 3 3 C2.67 3.66 2.34 4.32 2 5 C0.02 5 -1.96 5 -4 5 C-4 4.34 -4 3.68 -4 3 C-2 1.375 -2 1.375 0 0 Z " fill="#38DAD4" transform="translate(209,254)"/>
</svg>
